<svg id="Capa_1" data-name="Capa 1" xmlns="http://www.w3.org/2000/svg" xmlns:xlink="http://www.w3.org/1999/xlink" viewBox="0 0 463.7 178.02"><defs><style>.cls-1{fill:#fff;stroke:#1d1d1b;stroke-miterlimit:10;}.cls-2{fill:#1d1d1b;}</style></defs><image width="512" height="512" transform="translate(-5.9) scale(0.34)" xlink:href="../../../../../../xampp/htdocs/webPersonal/resources/imgs/git%20icon.png"/><line class="cls-1" x1="192.29" y1="30.24" x2="192.29" y2="145.29"/><path class="cls-2" d="M261,133.37V110.85h3.76a4.76,4.76,0,0,1,3,.79,3.88,3.88,0,0,1,1.37,2.23,13.66,13.66,0,0,1,.37,3.4v9.65a12.4,12.4,0,0,1-.47,3.76,3.63,3.63,0,0,1-1.52,2,5.35,5.35,0,0,1-2.82.64Zm2.05-1.64h1.71a2.72,2.72,0,0,0,1.49-.38,2.49,2.49,0,0,0,.88-1.47,13.1,13.1,0,0,0,.29-3.15v-9.66a7.54,7.54,0,0,0-.62-3.56,2.07,2.07,0,0,0-1.92-1.07H263Z"/><path class="cls-2" d="M276.5,133.37V110.85h6.44v1.49h-4.38v8.8h4.12v1.55h-4.12v9.17h4.34v1.51Z"/><path class="cls-2" d="M292,133.37l-4.34-22.52h2l1.67,8.93L293,129.3h0l1.55-9.52,1.48-8.93h2l-3.93,22.52Z"/><path class="cls-2" d="M303.83,133.37V110.85h6.44v1.49h-4.38v8.8H310v1.55h-4.12v9.17h4.34v1.51Z"/><path class="cls-2" d="M316.59,133.37V110.85h2.06v21H323v1.51Z"/><path class="cls-2" d="M332,133.62a4.22,4.22,0,0,1-2.7-.74,3.86,3.86,0,0,1-1.28-2.27,18.87,18.87,0,0,1-.33-3.88v-9.58a17.49,17.49,0,0,1,.29-3.43,4.07,4.07,0,0,1,1.22-2.33,4.3,4.3,0,0,1,2.89-.83,4.74,4.74,0,0,1,2.32.48,2.92,2.92,0,0,1,1.24,1.36,6.55,6.55,0,0,1,.5,2.08c.08.81.11,1.69.11,2.67v9.58a18.87,18.87,0,0,1-.33,3.88,3.84,3.84,0,0,1-1.25,2.27A4.14,4.14,0,0,1,332,133.62Zm0-1.56a1.83,1.83,0,0,0,1.36-.47A2.92,2.92,0,0,0,334,130a22.22,22.22,0,0,0,.18-3.22V117a12.12,12.12,0,0,0-.4-3.69,1.62,1.62,0,0,0-1.71-1.14,1.82,1.82,0,0,0-1.86,1.15,10.26,10.26,0,0,0-.48,3.67v9.75a22.22,22.22,0,0,0,.18,3.22,2.85,2.85,0,0,0,.67,1.64A1.9,1.9,0,0,0,332,132.06Z"/><path class="cls-2" d="M343.25,133.37V110.85h4.24a4.81,4.81,0,0,1,2.33.48,3,3,0,0,1,1.27,1.36,6.41,6.41,0,0,1,.52,2.07c.08.8.12,1.67.12,2.63v.23a18.2,18.2,0,0,1-.35,3.89,4,4,0,0,1-1.3,2.29,4.28,4.28,0,0,1-2.72.75h-2.05v8.82Zm2.06-10.43h2.19a1.76,1.76,0,0,0,1.33-.48,3.11,3.11,0,0,0,.64-1.65,21.73,21.73,0,0,0,.18-3.17v-.43a12,12,0,0,0-.37-3.62,1.6,1.6,0,0,0-1.68-1.15h-2.29Z"/><path class="cls-2" d="M357.83,133.37V110.85h6.44v1.49h-4.38v8.8H364v1.55h-4.12v9.17h4.34v1.51Z"/><path class="cls-2" d="M370.59,133.37V110.85h4.14a5.54,5.54,0,0,1,2.89.58,2.68,2.68,0,0,1,1.18,1.8,15.26,15.26,0,0,1,.27,3.17,10.32,10.32,0,0,1-.48,3.48,2.47,2.47,0,0,1-1.76,1.65,1.94,1.94,0,0,1,1.15.57,3.26,3.26,0,0,1,.67,1.53,18.92,18.92,0,0,1,.32,2.91c.06,1.23.09,2.81.09,4.73v.54c0,.16,0,.3,0,.43s0,.25.05.37a3.15,3.15,0,0,0,.09.36c0,.12.09.25.15.4h-2.05a2.21,2.21,0,0,1-.14-.37c0-.14-.06-.34-.09-.62s0-.65-.05-1.15,0-1.14,0-2v-3c0-1,0-1.81-.08-2.35a1.45,1.45,0,0,0-.53-1.12,3.14,3.14,0,0,0-1.56-.38l-2.19-.13v11.11ZM372.64,121h2.16a2.72,2.72,0,0,0,1.37-.28,1.78,1.78,0,0,0,.66-1.26,19,19,0,0,0,.18-3v-.17a14.68,14.68,0,0,0-.16-2.48,1.59,1.59,0,0,0-.61-1.1,2.48,2.48,0,0,0-1.29-.27h-2.31Z"/><path class="cls-2" d="M228,76.68V38.18h17.17q6.71,0,10,2.81a9.1,9.1,0,0,1,3.28,7.26,10,10,0,0,1-1.35,5.22A9.16,9.16,0,0,1,253.21,57a12.8,12.8,0,0,1-5.88,1.27l.92-2.64a14.52,14.52,0,0,1,6.19,1.24,9.31,9.31,0,0,1,4.15,3.6,10.51,10.51,0,0,1,1.47,5.66,9.36,9.36,0,0,1-3.54,7.76q-3.55,2.81-10.4,2.8Zm9.4-7.86h8a6.15,6.15,0,0,0,3.76-1,4.07,4.07,0,0,0,0-5.89,6.15,6.15,0,0,0-3.76-1h-8.68V53.47H244a5.87,5.87,0,0,0,3.62-.93,3.28,3.28,0,0,0,1.21-2.75A3.32,3.32,0,0,0,247.57,47a5.94,5.94,0,0,0-3.62-.91h-6.56Z"/><path class="cls-2" d="M267.49,76.68V46.82h8.78v8.74l-1.35-2.47A9.78,9.78,0,0,1,278.7,48a11.15,11.15,0,0,1,6.3-1.71v9.46a10.9,10.9,0,0,0-1.11-.13l-1,0a6.16,6.16,0,0,0-4.53,1.73q-1.74,1.74-1.74,5.64V76.68Z"/><path class="cls-2" d="M302.74,77.18A11.44,11.44,0,0,1,297,75.75a9.61,9.61,0,0,1-4-4.48,18.64,18.64,0,0,1-1.42-7.79V46.82h9.17v15c0,2.31.37,4,1.13,5a3.76,3.76,0,0,0,3.21,1.51,4.4,4.4,0,0,0,4.24-3,10.76,10.76,0,0,0,.63-4V46.82h9.16V76.68h-8.68V68.27l1.69,2.36a10.53,10.53,0,0,1-3.93,4.93A10.06,10.06,0,0,1,302.74,77.18Z"/><path class="cls-2" d="M362.07,46.32a10.37,10.37,0,0,1,5.42,1.43,9.82,9.82,0,0,1,3.77,4.35,17.81,17.81,0,0,1,1.37,7.53V76.68h-9.16V61.34a8,8,0,0,0-1.07-4.65,3.38,3.38,0,0,0-2.89-1.46,4.09,4.09,0,0,0-2.39.72,4.59,4.59,0,0,0-1.61,2.17,10.44,10.44,0,0,0-.58,3.82V76.68h-9.16V61.34a8.16,8.16,0,0,0-1-4.65,3.39,3.39,0,0,0-2.92-1.46,4.08,4.08,0,0,0-2.36.72,4.74,4.74,0,0,0-1.67,2.17,10.19,10.19,0,0,0-.6,3.82V76.68H328V46.82h8.77v8.36l-1.73-2.37A10.75,10.75,0,0,1,339,48a9.93,9.93,0,0,1,5.59-1.65,9.82,9.82,0,0,1,6.22,2.07,10.53,10.53,0,0,1,3.57,6.46l-3-.77a12.61,12.61,0,0,1,4.22-5.67A10.63,10.63,0,0,1,362.07,46.32Z"/><path class="cls-2" d="M389.56,77.18A10.73,10.73,0,0,1,384.28,76a8.14,8.14,0,0,1-3.33-3.3,9.46,9.46,0,0,1-1.13-4.62,9.11,9.11,0,0,1,1.23-4.79,7.74,7.74,0,0,1,3.81-3.1,17.17,17.17,0,0,1,6.58-1.08h6.17v5.5h-4.92a4.84,4.84,0,0,0-3.11.77,2.78,2.78,0,0,0-.89,2.2,2.83,2.83,0,0,0,.92,2.18,3.51,3.51,0,0,0,2.5.85,4.53,4.53,0,0,0,4.54-3.47L397.9,71a7.72,7.72,0,0,1-2.82,4.65A9,9,0,0,1,389.56,77.18Zm7.71-.5V71.13l-.62-1.38V59.52a5.19,5.19,0,0,0-1.33-3.82,5.7,5.7,0,0,0-4.22-1.35,11,11,0,0,0-3.83.72A11.59,11.59,0,0,0,384,56.88l-3-7a16.9,16.9,0,0,1,5.32-2.58,21.6,21.6,0,0,1,6.2-.94q6.38,0,9.86,3.36t3.5,10.45V76.68Z"/></svg>